<svg width="305" height="155" viewBox="0 0 305 155" fill="none" xmlns="http://www.w3.org/2000/svg">
<g filter="url(#filter0_d_1_22)">
<rect x="40" y="24" width="225" height="75" rx="25" fill="white"/>
</g>
<rect x="54" y="37" width="106" height="50" rx="15" fill="#2D76F9"/>
<path d="M180.461 59.008V66.328C180.461 66.824 180.573 67.184 180.797 67.408C181.037 67.616 181.437 67.72 181.997 67.72H183.677V70H181.517C180.285 70 179.341 69.712 178.685 69.136C178.029 68.56 177.701 67.624 177.701 66.328V59.008H176.141V56.776H177.701V53.488H180.461V56.776H183.677V59.008H180.461ZM191.934 70.216C190.686 70.216 189.558 69.936 188.55 69.376C187.542 68.8 186.75 68 186.174 66.976C185.598 65.936 185.31 64.736 185.31 63.376C185.31 62.032 185.606 60.84 186.198 59.8C186.79 58.76 187.598 57.96 188.622 57.4C189.646 56.84 190.79 56.56 192.054 56.56C193.318 56.56 194.462 56.84 195.486 57.4C196.51 57.96 197.318 58.76 197.91 59.8C198.502 60.84 198.798 62.032 198.798 63.376C198.798 64.72 198.494 65.912 197.886 66.952C197.278 67.992 196.446 68.8 195.39 69.376C194.35 69.936 193.198 70.216 191.934 70.216ZM191.934 67.84C192.638 67.84 193.294 67.672 193.902 67.336C194.526 67 195.03 66.496 195.414 65.824C195.798 65.152 195.99 64.336 195.99 63.376C195.99 62.416 195.806 61.608 195.438 60.952C195.07 60.28 194.582 59.776 193.974 59.44C193.366 59.104 192.71 58.936 192.006 58.936C191.302 58.936 190.646 59.104 190.038 59.44C189.446 59.776 188.974 60.28 188.622 60.952C188.27 61.608 188.094 62.416 188.094 63.376C188.094 64.8 188.454 65.904 189.174 66.688C189.91 67.456 190.83 67.84 191.934 67.84ZM219.714 56.776V70H216.978V68.44C216.546 68.984 215.978 69.416 215.274 69.736C214.586 70.04 213.85 70.192 213.066 70.192C212.026 70.192 211.09 69.976 210.258 69.544C209.442 69.112 208.794 68.472 208.314 67.624C207.85 66.776 207.618 65.752 207.618 64.552V56.776H210.33V64.144C210.33 65.328 210.626 66.24 211.218 66.88C211.81 67.504 212.618 67.816 213.642 67.816C214.666 67.816 215.474 67.504 216.066 66.88C216.674 66.24 216.978 65.328 216.978 64.144V56.776H219.714ZM228.123 70.216C227.083 70.216 226.147 70.032 225.315 69.664C224.499 69.28 223.851 68.768 223.371 68.128C222.891 67.472 222.635 66.744 222.603 65.944H225.435C225.483 66.504 225.747 66.976 226.227 67.36C226.723 67.728 227.339 67.912 228.075 67.912C228.843 67.912 229.435 67.768 229.851 67.48C230.283 67.176 230.499 66.792 230.499 66.328C230.499 65.832 230.259 65.464 229.779 65.224C229.315 64.984 228.571 64.72 227.547 64.432C226.555 64.16 225.747 63.896 225.123 63.64C224.499 63.384 223.955 62.992 223.491 62.464C223.043 61.936 222.819 61.24 222.819 60.376C222.819 59.672 223.027 59.032 223.443 58.456C223.859 57.864 224.451 57.4 225.219 57.064C226.003 56.728 226.899 56.56 227.907 56.56C229.411 56.56 230.619 56.944 231.531 57.712C232.459 58.464 232.955 59.496 233.019 60.808H230.283C230.235 60.216 229.995 59.744 229.563 59.392C229.131 59.04 228.547 58.864 227.811 58.864C227.091 58.864 226.539 59 226.155 59.272C225.771 59.544 225.579 59.904 225.579 60.352C225.579 60.704 225.707 61 225.963 61.24C226.219 61.48 226.531 61.672 226.899 61.816C227.267 61.944 227.811 62.112 228.531 62.32C229.491 62.576 230.275 62.84 230.883 63.112C231.507 63.368 232.043 63.752 232.491 64.264C232.939 64.776 233.171 65.456 233.187 66.304C233.187 67.056 232.979 67.728 232.563 68.32C232.147 68.912 231.555 69.376 230.787 69.712C230.035 70.048 229.147 70.216 228.123 70.216ZM248.264 63.064C248.264 63.56 248.232 64.008 248.168 64.408H238.064C238.144 65.464 238.536 66.312 239.24 66.952C239.944 67.592 240.808 67.912 241.832 67.912C243.304 67.912 244.344 67.296 244.952 66.064H247.904C247.504 67.28 246.776 68.28 245.72 69.064C244.68 69.832 243.384 70.216 241.832 70.216C240.568 70.216 239.432 69.936 238.424 69.376C237.432 68.8 236.648 68 236.072 66.976C235.512 65.936 235.232 64.736 235.232 63.376C235.232 62.016 235.504 60.824 236.048 59.8C236.608 58.76 237.384 57.96 238.376 57.4C239.384 56.84 240.536 56.56 241.832 56.56C243.08 56.56 244.192 56.832 245.168 57.376C246.144 57.92 246.904 58.688 247.448 59.68C247.992 60.656 248.264 61.784 248.264 63.064ZM245.408 62.2C245.392 61.192 245.032 60.384 244.328 59.776C243.624 59.168 242.752 58.864 241.712 58.864C240.768 58.864 239.96 59.168 239.288 59.776C238.616 60.368 238.216 61.176 238.088 62.2H245.408Z" fill="#2D76F9"/>
<path d="M83.016 55.96V60.16H88.656V62.824H83.016V67.264H89.376V70H79.656V53.224H89.376V55.96H83.016ZM91.5654 63.304C91.5654 61.96 91.8294 60.768 92.3574 59.728C92.9014 58.688 93.6294 57.888 94.5414 57.328C95.4694 56.768 96.5014 56.488 97.6374 56.488C98.6294 56.488 99.4934 56.688 100.229 57.088C100.981 57.488 101.581 57.992 102.029 58.6V56.704H105.413V70H102.029V68.056C101.597 68.68 100.997 69.2 100.229 69.616C99.4774 70.016 98.6054 70.216 97.6134 70.216C96.4934 70.216 95.4694 69.928 94.5414 69.352C93.6294 68.776 92.9014 67.968 92.3574 66.928C91.8294 65.872 91.5654 64.664 91.5654 63.304ZM102.029 63.352C102.029 62.536 101.869 61.84 101.549 61.264C101.229 60.672 100.797 60.224 100.253 59.92C99.7094 59.6 99.1254 59.44 98.5014 59.44C97.8774 59.44 97.3014 59.592 96.7734 59.896C96.2454 60.2 95.8134 60.648 95.4774 61.24C95.1574 61.816 94.9974 62.504 94.9974 63.304C94.9974 64.104 95.1574 64.808 95.4774 65.416C95.8134 66.008 96.2454 66.464 96.7734 66.784C97.3174 67.104 97.8934 67.264 98.5014 67.264C99.1254 67.264 99.7094 67.112 100.253 66.808C100.797 66.488 101.229 66.04 101.549 65.464C101.869 64.872 102.029 64.168 102.029 63.352ZM113.783 70.216C112.695 70.216 111.719 70.024 110.855 69.64C109.991 69.24 109.303 68.704 108.791 68.032C108.295 67.36 108.023 66.616 107.975 65.8H111.359C111.423 66.312 111.671 66.736 112.103 67.072C112.551 67.408 113.103 67.576 113.759 67.576C114.399 67.576 114.895 67.448 115.247 67.192C115.615 66.936 115.799 66.608 115.799 66.208C115.799 65.776 115.575 65.456 115.127 65.248C114.695 65.024 113.999 64.784 113.039 64.528C112.047 64.288 111.231 64.04 110.591 63.784C109.967 63.528 109.423 63.136 108.959 62.608C108.511 62.08 108.287 61.368 108.287 60.472C108.287 59.736 108.495 59.064 108.911 58.456C109.343 57.848 109.951 57.368 110.735 57.016C111.535 56.664 112.471 56.488 113.543 56.488C115.127 56.488 116.391 56.888 117.335 57.688C118.279 58.472 118.799 59.536 118.895 60.88H115.679C115.631 60.352 115.407 59.936 115.007 59.632C114.623 59.312 114.103 59.152 113.447 59.152C112.839 59.152 112.367 59.264 112.031 59.488C111.711 59.712 111.551 60.024 111.551 60.424C111.551 60.872 111.775 61.216 112.223 61.456C112.671 61.68 113.367 61.912 114.311 62.152C115.271 62.392 116.063 62.64 116.687 62.896C117.311 63.152 117.847 63.552 118.295 64.096C118.759 64.624 118.999 65.328 119.015 66.208C119.015 66.976 118.799 67.664 118.367 68.272C117.951 68.88 117.343 69.36 116.543 69.712C115.759 70.048 114.839 70.216 113.783 70.216ZM134.493 56.704L126.261 76.288H122.685L125.565 69.664L120.237 56.704H124.005L127.437 65.992L130.917 56.704H134.493Z" fill="white"/>
<defs>
<filter id="filter0_d_1_22" x="0" y="0" width="305" height="155" filterUnits="userSpaceOnUse" color-interpolation-filters="sRGB">
<feFlood flood-opacity="0" result="BackgroundImageFix"/>
<feColorMatrix in="SourceAlpha" type="matrix" values="0 0 0 0 0 0 0 0 0 0 0 0 0 0 0 0 0 0 127 0" result="hardAlpha"/>
<feOffset dy="16"/>
<feGaussianBlur stdDeviation="20"/>
<feColorMatrix type="matrix" values="0 0 0 0 0.439216 0 0 0 0 0.564706 0 0 0 0 0.690196 0 0 0 0.1 0"/>
<feBlend mode="normal" in2="BackgroundImageFix" result="effect1_dropShadow_1_22"/>
<feBlend mode="normal" in="SourceGraphic" in2="effect1_dropShadow_1_22" result="shape"/>
</filter>
</defs>
</svg>
