<svg width="305" height="205" viewBox="0 0 305 205" fill="none" xmlns="http://www.w3.org/2000/svg">
<g filter="url(#filter0_d_1_15)">
<rect x="40" y="24" width="225" height="125" rx="25" fill="white"/>
</g>
<path d="M89.064 89.816H73.512V98.024C74.184 97.192 75.144 96.52 76.392 96.008C77.64 95.464 78.968 95.192 80.376 95.192C82.936 95.192 85.032 95.752 86.664 96.872C88.296 97.992 89.48 99.432 90.216 101.192C90.952 102.92 91.32 104.776 91.32 106.76C91.32 110.44 90.264 113.4 88.152 115.64C86.072 117.88 83.096 119 79.224 119C75.576 119 72.664 118.088 70.488 116.264C68.312 114.44 67.08 112.056 66.792 109.112H73.32C73.608 110.392 74.248 111.416 75.24 112.184C76.264 112.952 77.56 113.336 79.128 113.336C81.016 113.336 82.44 112.744 83.4 111.56C84.36 110.376 84.84 108.808 84.84 106.856C84.84 104.872 84.344 103.368 83.352 102.344C82.392 101.288 80.968 100.76 79.08 100.76C77.736 100.76 76.616 101.096 75.72 101.768C74.824 102.44 74.184 103.336 73.8 104.456H67.368V83.912H89.064V89.816ZM98.8346 101.048C98.8346 95.512 99.8266 91.176 101.811 88.04C103.827 84.904 107.155 83.336 111.795 83.336C116.435 83.336 119.747 84.904 121.731 88.04C123.747 91.176 124.755 95.512 124.755 101.048C124.755 106.616 123.747 110.984 121.731 114.152C119.747 117.32 116.435 118.904 111.795 118.904C107.155 118.904 103.827 117.32 101.811 114.152C99.8266 110.984 98.8346 106.616 98.8346 101.048ZM118.131 101.048C118.131 98.68 117.971 96.696 117.651 95.096C117.363 93.464 116.755 92.136 115.827 91.112C114.931 90.088 113.587 89.576 111.795 89.576C110.003 89.576 108.643 90.088 107.715 91.112C106.819 92.136 106.211 93.464 105.891 95.096C105.603 96.696 105.459 98.68 105.459 101.048C105.459 103.48 105.603 105.528 105.891 107.192C106.179 108.824 106.787 110.152 107.715 111.176C108.643 112.168 110.003 112.664 111.795 112.664C113.587 112.664 114.947 112.168 115.875 111.176C116.803 110.152 117.411 108.824 117.699 107.192C117.987 105.528 118.131 103.48 118.131 101.048ZM136.01 119.336C134.794 119.336 133.786 118.968 132.986 118.232C132.218 117.464 131.834 116.52 131.834 115.4C131.834 114.28 132.218 113.352 132.986 112.616C133.786 111.848 134.794 111.464 136.01 111.464C137.194 111.464 138.17 111.848 138.938 112.616C139.706 113.352 140.09 114.28 140.09 115.4C140.09 116.52 139.706 117.464 138.938 118.232C138.17 118.968 137.194 119.336 136.01 119.336ZM147.135 101.048C147.135 95.512 148.127 91.176 150.111 88.04C152.127 84.904 155.455 83.336 160.095 83.336C164.735 83.336 168.047 84.904 170.031 88.04C172.047 91.176 173.055 95.512 173.055 101.048C173.055 106.616 172.047 110.984 170.031 114.152C168.047 117.32 164.735 118.904 160.095 118.904C155.455 118.904 152.127 117.32 150.111 114.152C148.127 110.984 147.135 106.616 147.135 101.048ZM166.431 101.048C166.431 98.68 166.271 96.696 165.951 95.096C165.663 93.464 165.055 92.136 164.127 91.112C163.231 90.088 161.887 89.576 160.095 89.576C158.303 89.576 156.943 90.088 156.015 91.112C155.119 92.136 154.511 93.464 154.191 95.096C153.903 96.696 153.759 98.68 153.759 101.048C153.759 103.48 153.903 105.528 154.191 107.192C154.479 108.824 155.087 110.152 156.015 111.176C156.943 112.168 158.303 112.664 160.095 112.664C161.887 112.664 163.247 112.168 164.175 111.176C165.103 110.152 165.711 108.824 165.999 107.192C166.287 105.528 166.431 103.48 166.431 101.048ZM180.566 101.048C180.566 95.512 181.558 91.176 183.542 88.04C185.558 84.904 188.886 83.336 193.526 83.336C198.166 83.336 201.478 84.904 203.462 88.04C205.478 91.176 206.486 95.512 206.486 101.048C206.486 106.616 205.478 110.984 203.462 114.152C201.478 117.32 198.166 118.904 193.526 118.904C188.886 118.904 185.558 117.32 183.542 114.152C181.558 110.984 180.566 106.616 180.566 101.048ZM199.862 101.048C199.862 98.68 199.702 96.696 199.382 95.096C199.094 93.464 198.486 92.136 197.558 91.112C196.662 90.088 195.318 89.576 193.526 89.576C191.734 89.576 190.374 90.088 189.446 91.112C188.55 92.136 187.942 93.464 187.622 95.096C187.334 96.696 187.19 98.68 187.19 101.048C187.19 103.48 187.334 105.528 187.622 107.192C187.91 108.824 188.518 110.152 189.446 111.176C190.374 112.168 191.734 112.664 193.526 112.664C195.318 112.664 196.678 112.168 197.606 111.176C198.534 110.152 199.142 108.824 199.43 107.192C199.718 105.528 199.862 103.48 199.862 101.048ZM213.997 101.048C213.997 95.512 214.989 91.176 216.973 88.04C218.989 84.904 222.317 83.336 226.957 83.336C231.597 83.336 234.909 84.904 236.893 88.04C238.909 91.176 239.917 95.512 239.917 101.048C239.917 106.616 238.909 110.984 236.893 114.152C234.909 117.32 231.597 118.904 226.957 118.904C222.317 118.904 218.989 117.32 216.973 114.152C214.989 110.984 213.997 106.616 213.997 101.048ZM233.293 101.048C233.293 98.68 233.133 96.696 232.813 95.096C232.525 93.464 231.917 92.136 230.989 91.112C230.093 90.088 228.749 89.576 226.957 89.576C225.165 89.576 223.805 90.088 222.877 91.112C221.981 92.136 221.373 93.464 221.053 95.096C220.765 96.696 220.621 98.68 220.621 101.048C220.621 103.48 220.765 105.528 221.053 107.192C221.341 108.824 221.949 110.152 222.877 111.176C223.805 112.168 225.165 112.664 226.957 112.664C228.749 112.664 230.109 112.168 231.037 111.176C231.965 110.152 232.573 108.824 232.861 107.192C233.149 105.528 233.293 103.48 233.293 101.048Z" fill="#2D76F9"/>
<path d="M99.324 50.242V56.416C99.324 57.284 99.534 57.928 99.954 58.348C100.383 58.768 100.976 58.978 101.732 58.978C102.479 58.978 103.062 58.768 103.482 58.348C103.911 57.928 104.126 57.284 104.126 56.416V50.242H105.4V56.402C105.4 57.214 105.237 57.9 104.91 58.46C104.583 59.0107 104.14 59.4213 103.58 59.692C103.029 59.9627 102.409 60.098 101.718 60.098C101.027 60.098 100.402 59.9627 99.842 59.692C99.2913 59.4213 98.8527 59.0107 98.526 58.46C98.2087 57.9 98.05 57.214 98.05 56.402V50.242H99.324ZM110.241 60.126C109.653 60.126 109.126 60.028 108.659 59.832C108.193 59.6267 107.824 59.3467 107.553 58.992C107.283 58.628 107.133 58.2127 107.105 57.746H108.421C108.459 58.1287 108.636 58.4413 108.953 58.684C109.28 58.9267 109.705 59.048 110.227 59.048C110.713 59.048 111.095 58.9407 111.375 58.726C111.655 58.5113 111.795 58.2407 111.795 57.914C111.795 57.578 111.646 57.3307 111.347 57.172C111.049 57.004 110.587 56.8407 109.961 56.682C109.392 56.5327 108.925 56.3833 108.561 56.234C108.207 56.0753 107.899 55.8467 107.637 55.548C107.385 55.24 107.259 54.8387 107.259 54.344C107.259 53.952 107.376 53.5927 107.609 53.266C107.843 52.9393 108.174 52.6827 108.603 52.496C109.033 52.3 109.523 52.202 110.073 52.202C110.923 52.202 111.609 52.4167 112.131 52.846C112.654 53.2753 112.934 53.8633 112.971 54.61H111.697C111.669 54.2087 111.506 53.8867 111.207 53.644C110.918 53.4013 110.526 53.28 110.031 53.28C109.574 53.28 109.21 53.378 108.939 53.574C108.669 53.77 108.533 54.0267 108.533 54.344C108.533 54.596 108.613 54.806 108.771 54.974C108.939 55.1327 109.145 55.2633 109.387 55.366C109.639 55.4593 109.985 55.5667 110.423 55.688C110.974 55.8373 111.422 55.9867 111.767 56.136C112.113 56.276 112.407 56.4907 112.649 56.78C112.901 57.0693 113.032 57.4473 113.041 57.914C113.041 58.334 112.925 58.712 112.691 59.048C112.458 59.384 112.127 59.65 111.697 59.846C111.277 60.0327 110.792 60.126 110.241 60.126ZM121.84 55.87C121.84 56.1127 121.826 56.3693 121.798 56.64H115.666C115.712 57.396 115.969 57.9887 116.436 58.418C116.912 58.838 117.486 59.048 118.158 59.048C118.708 59.048 119.166 58.922 119.53 58.67C119.903 58.4087 120.164 58.0633 120.314 57.634H121.686C121.48 58.3713 121.07 58.9733 120.454 59.44C119.838 59.8973 119.072 60.126 118.158 60.126C117.43 60.126 116.776 59.9627 116.198 59.636C115.628 59.3093 115.18 58.8473 114.854 58.25C114.527 57.6433 114.364 56.9433 114.364 56.15C114.364 55.3567 114.522 54.6613 114.84 54.064C115.157 53.4667 115.6 53.0093 116.17 52.692C116.748 52.3653 117.411 52.202 118.158 52.202C118.886 52.202 119.53 52.3607 120.09 52.678C120.65 52.9953 121.079 53.434 121.378 53.994C121.686 54.5447 121.84 55.17 121.84 55.87ZM120.524 55.604C120.524 55.1187 120.416 54.7033 120.202 54.358C119.987 54.0033 119.693 53.7373 119.32 53.56C118.956 53.3733 118.55 53.28 118.102 53.28C117.458 53.28 116.907 53.4853 116.45 53.896C116.002 54.3067 115.745 54.876 115.68 55.604H120.524ZM124.795 53.574C125.019 53.1353 125.337 52.7947 125.747 52.552C126.167 52.3093 126.676 52.188 127.273 52.188V53.504H126.937C125.509 53.504 124.795 54.2787 124.795 55.828V60H123.521V52.328H124.795V53.574ZM135.514 50.242C136.578 50.242 137.498 50.4427 138.272 50.844C139.056 51.236 139.654 51.8007 140.064 52.538C140.484 53.2753 140.694 54.1433 140.694 55.142C140.694 56.1407 140.484 57.0087 140.064 57.746C139.654 58.474 139.056 59.034 138.272 59.426C137.498 59.8087 136.578 60 135.514 60H132.476V50.242H135.514ZM135.514 58.95C136.774 58.95 137.736 58.6187 138.398 57.956C139.061 57.284 139.392 56.346 139.392 55.142C139.392 53.9287 139.056 52.9813 138.384 52.3C137.722 51.6187 136.765 51.278 135.514 51.278H133.75V58.95H135.514ZM145.721 60.126C145.002 60.126 144.349 59.9627 143.761 59.636C143.182 59.3093 142.725 58.8473 142.389 58.25C142.062 57.6433 141.899 56.9433 141.899 56.15C141.899 55.366 142.067 54.6753 142.403 54.078C142.748 53.4713 143.215 53.0093 143.803 52.692C144.391 52.3653 145.049 52.202 145.777 52.202C146.505 52.202 147.163 52.3653 147.751 52.692C148.339 53.0093 148.801 53.4667 149.137 54.064C149.482 54.6613 149.655 55.3567 149.655 56.15C149.655 56.9433 149.478 57.6433 149.123 58.25C148.778 58.8473 148.306 59.3093 147.709 59.636C147.112 59.9627 146.449 60.126 145.721 60.126ZM145.721 59.006C146.178 59.006 146.608 58.8987 147.009 58.684C147.41 58.4693 147.732 58.1473 147.975 57.718C148.227 57.2887 148.353 56.766 148.353 56.15C148.353 55.534 148.232 55.0113 147.989 54.582C147.746 54.1527 147.429 53.8353 147.037 53.63C146.645 53.4153 146.22 53.308 145.763 53.308C145.296 53.308 144.867 53.4153 144.475 53.63C144.092 53.8353 143.784 54.1527 143.551 54.582C143.318 55.0113 143.201 55.534 143.201 56.15C143.201 56.7753 143.313 57.3027 143.537 57.732C143.77 58.1613 144.078 58.4833 144.461 58.698C144.844 58.9033 145.264 59.006 145.721 59.006ZM161.55 52.328L159.156 60H157.84L155.992 53.91L154.144 60H152.828L150.42 52.328H151.722L153.486 58.768L155.39 52.328H156.692L158.554 58.782L160.29 52.328H161.55ZM166.552 52.188C167.486 52.188 168.242 52.4727 168.82 53.042C169.399 53.602 169.688 54.414 169.688 55.478V60H168.428V55.66C168.428 54.8947 168.237 54.3113 167.854 53.91C167.472 53.4993 166.949 53.294 166.286 53.294C165.614 53.294 165.078 53.504 164.676 53.924C164.284 54.344 164.088 54.9553 164.088 55.758V60H162.814V52.328H164.088V53.42C164.34 53.028 164.681 52.7247 165.11 52.51C165.549 52.2953 166.03 52.188 166.552 52.188ZM173.043 49.64V60H171.769V49.64H173.043ZM178.561 60.126C177.842 60.126 177.189 59.9627 176.601 59.636C176.022 59.3093 175.565 58.8473 175.229 58.25C174.902 57.6433 174.739 56.9433 174.739 56.15C174.739 55.366 174.907 54.6753 175.243 54.078C175.588 53.4713 176.055 53.0093 176.643 52.692C177.231 52.3653 177.889 52.202 178.617 52.202C179.345 52.202 180.003 52.3653 180.591 52.692C181.179 53.0093 181.641 53.4667 181.977 54.064C182.322 54.6613 182.495 55.3567 182.495 56.15C182.495 56.9433 182.317 57.6433 181.963 58.25C181.617 58.8473 181.146 59.3093 180.549 59.636C179.951 59.9627 179.289 60.126 178.561 60.126ZM178.561 59.006C179.018 59.006 179.447 58.8987 179.849 58.684C180.25 58.4693 180.572 58.1473 180.815 57.718C181.067 57.2887 181.193 56.766 181.193 56.15C181.193 55.534 181.071 55.0113 180.829 54.582C180.586 54.1527 180.269 53.8353 179.877 53.63C179.485 53.4153 179.06 53.308 178.603 53.308C178.136 53.308 177.707 53.4153 177.315 53.63C176.932 53.8353 176.624 54.1527 176.391 54.582C176.157 55.0113 176.041 55.534 176.041 56.15C176.041 56.7753 176.153 57.3027 176.377 57.732C176.61 58.1613 176.918 58.4833 177.301 58.698C177.683 58.9033 178.103 59.006 178.561 59.006ZM183.694 56.136C183.694 55.352 183.852 54.666 184.17 54.078C184.487 53.4807 184.921 53.0187 185.472 52.692C186.032 52.3653 186.652 52.202 187.334 52.202C188.006 52.202 188.589 52.3467 189.084 52.636C189.578 52.9253 189.947 53.2893 190.19 53.728V52.328H191.478V60H190.19V58.572C189.938 59.02 189.56 59.3933 189.056 59.692C188.561 59.9813 187.982 60.126 187.32 60.126C186.638 60.126 186.022 59.958 185.472 59.622C184.921 59.286 184.487 58.8147 184.17 58.208C183.852 57.6013 183.694 56.9107 183.694 56.136ZM190.19 56.15C190.19 55.5713 190.073 55.0673 189.84 54.638C189.606 54.2087 189.289 53.882 188.888 53.658C188.496 53.4247 188.062 53.308 187.586 53.308C187.11 53.308 186.676 53.42 186.284 53.644C185.892 53.868 185.579 54.1947 185.346 54.624C185.112 55.0533 184.996 55.5573 184.996 56.136C184.996 56.724 185.112 57.2373 185.346 57.676C185.579 58.1053 185.892 58.4367 186.284 58.67C186.676 58.894 187.11 59.006 187.586 59.006C188.062 59.006 188.496 58.894 188.888 58.67C189.289 58.4367 189.606 58.1053 189.84 57.676C190.073 57.2373 190.19 56.7287 190.19 56.15ZM193.155 56.136C193.155 55.352 193.313 54.666 193.631 54.078C193.948 53.4807 194.382 53.0187 194.933 52.692C195.493 52.3653 196.118 52.202 196.809 52.202C197.406 52.202 197.961 52.342 198.475 52.622C198.988 52.8927 199.38 53.252 199.651 53.7V49.64H200.939V60H199.651V58.558C199.399 59.0153 199.025 59.3933 198.531 59.692C198.036 59.9813 197.457 60.126 196.795 60.126C196.113 60.126 195.493 59.958 194.933 59.622C194.382 59.286 193.948 58.8147 193.631 58.208C193.313 57.6013 193.155 56.9107 193.155 56.136ZM199.651 56.15C199.651 55.5713 199.534 55.0673 199.301 54.638C199.067 54.2087 198.75 53.882 198.349 53.658C197.957 53.4247 197.523 53.308 197.047 53.308C196.571 53.308 196.137 53.42 195.745 53.644C195.353 53.868 195.04 54.1947 194.807 54.624C194.573 55.0533 194.457 55.5573 194.457 56.136C194.457 56.724 194.573 57.2373 194.807 57.676C195.04 58.1053 195.353 58.4367 195.745 58.67C196.137 58.894 196.571 59.006 197.047 59.006C197.523 59.006 197.957 58.894 198.349 58.67C198.75 58.4367 199.067 58.1053 199.301 57.676C199.534 57.2373 199.651 56.7287 199.651 56.15Z" fill="#747474"/>
<path d="M75 47.75C72.1087 47.75 69.75 50.1087 69.75 53C69.75 54.8075 70.6725 56.4125 72.0705 57.3597C69.3952 58.5072 67.5 61.1622 67.5 64.25H69C69 60.9275 71.6775 58.25 75 58.25C78.3225 58.25 81 60.9275 81 64.25H82.5C82.5 61.1622 80.6047 58.508 77.9295 57.359C78.643 56.8773 79.2276 56.2281 79.6321 55.4682C80.0367 54.7083 80.2488 53.8609 80.25 53C80.25 50.1087 77.8912 47.75 75 47.75ZM75 49.25C77.0798 49.25 78.75 50.9202 78.75 53C78.75 55.0798 77.0798 56.75 75 56.75C72.9202 56.75 71.25 55.0798 71.25 53C71.25 50.9202 72.9202 49.25 75 49.25Z" fill="#747474"/>
<defs>
<filter id="filter0_d_1_15" x="0" y="0" width="305" height="205" filterUnits="userSpaceOnUse" color-interpolation-filters="sRGB">
<feFlood flood-opacity="0" result="BackgroundImageFix"/>
<feColorMatrix in="SourceAlpha" type="matrix" values="0 0 0 0 0 0 0 0 0 0 0 0 0 0 0 0 0 0 127 0" result="hardAlpha"/>
<feOffset dy="16"/>
<feGaussianBlur stdDeviation="20"/>
<feColorMatrix type="matrix" values="0 0 0 0 0.439216 0 0 0 0 0.564706 0 0 0 0 0.690196 0 0 0 0.1 0"/>
<feBlend mode="normal" in2="BackgroundImageFix" result="effect1_dropShadow_1_15"/>
<feBlend mode="normal" in="SourceGraphic" in2="effect1_dropShadow_1_15" result="shape"/>
</filter>
</defs>
</svg>
